<svg xmlns="http://www.w3.org/2000/svg" width="240" height="240" viewBox="0 0 240 240"><g fill="none" stroke="#ad956f" stroke-width=".7" opacity=".24"><path d="M0 120a60 60 0 01120 0M12 120a48 48 0 0196 0M24 120a36 36 0 0172 0M36 120a24 24 0 0148 0M120 120a60 60 0 01120 0M132 120a48 48 0 0196 0M144 120a36 36 0 0172 0M156 120a24 24 0 0148 0"/><path d="M60 240a60 60 0 01120 0M72 240a48 48 0 0196 0M84 240a36 36 0 0172 0M96 240a24 24 0 0148 0"/></g><g transform="translate(120 40)" fill="none" stroke="#00d6e5" opacity=".2"><path d="M0-22Q22-22 22 0T0 22T-22 0T0-22ZM0-15L15 0 0 15-15 0Z"/><circle r="2" fill="#00d6e5"/></g></svg>